# Blender 3.4.1
# www.blender.org
mtllib HexTile.mtl
o Cylinder
v 0.000000 -0.250000 -0.932144
v 0.000000 -0.191235 -1.000000
v 0.000000 0.250000 -0.932144
v 0.000000 0.191235 -1.000000
v 0.807260 -0.250000 -0.466072
v 0.866025 -0.191235 -0.500000
v 0.807260 0.250000 -0.466072
v 0.866025 0.191235 -0.500000
v 0.807260 -0.250000 0.466072
v 0.866025 -0.191235 0.500000
v 0.807260 0.250000 0.466072
v 0.866025 0.191235 0.500000
v 0.000000 -0.250000 0.932144
v 0.000000 -0.191235 1.000000
v 0.000000 0.250000 0.932144
v 0.000000 0.191235 1.000000
v -0.807260 -0.250000 0.466072
v -0.866025 -0.191235 0.500000
v -0.807260 0.250000 0.466072
v -0.866025 0.191235 0.500000
v -0.807260 -0.250000 -0.466072
v -0.866025 -0.191235 -0.500000
v -0.807260 0.250000 -0.466072
v -0.866025 0.191235 -0.500000
vn -0.5000 -0.0000 -0.8660
vn 0.5000 -0.0000 0.8660
vn -0.5000 -0.0000 0.8660
vn -1.0000 -0.0000 -0.0000
vn 1.0000 -0.0000 -0.0000
vn -0.0000 1.0000 -0.0000
vn 0.5000 -0.0000 -0.8660
vn 0.3536 -0.7071 -0.6124
vn 0.3536 0.7071 -0.6124
vn 0.7071 -0.7071 -0.0000
vn 0.7071 0.7071 -0.0000
vn 0.3536 -0.7071 0.6124
vn 0.3536 0.7071 0.6124
vn -0.3536 -0.7071 0.6124
vn -0.3536 0.7071 0.6124
vn -0.7071 -0.7071 -0.0000
vn -0.7071 0.7071 -0.0000
vn -0.3536 -0.7071 -0.6124
vn -0.3536 0.7071 -0.6124
vn -0.0000 -1.0000 -0.0000
vt 0.750000 0.473715
vt -0.000000 0.558765
vt 1.000000 0.558765
vt 0.750000 0.490000
vt 0.250000 0.473715
vt -0.000000 0.941235
vt 1.000000 0.941235
vt 0.250000 0.490000
vt 0.943743 0.361857
vt 0.833333 0.558765
vt 0.957846 0.370000
vt 0.443743 0.361857
vt 0.833333 0.941235
vt 0.457846 0.370000
vt 0.943743 0.138143
vt 0.666667 0.558765
vt 0.957846 0.130000
vt 0.443743 0.138143
vt 0.666667 0.941235
vt 0.457846 0.130000
vt 0.750000 0.026285
vt 0.500000 0.558765
vt 0.750000 0.010000
vt 0.250000 0.026285
vt 0.500000 0.941235
vt 0.250000 0.010000
vt 0.556257 0.138143
vt 0.333333 0.558765
vt 0.542154 0.130000
vt 0.056258 0.138143
vt 0.333333 0.941235
vt 0.042154 0.130000
vt 0.556257 0.361857
vt 0.166667 0.558765
vt 0.542154 0.370000
vt 0.056258 0.361857
vt 0.166667 0.941235
vt 0.042154 0.370000
s 0
f 22/34/1 24/37/1 4/6/1 2/2/1
f 10/16/2 12/19/2 16/25/2 14/22/2
f 14/22/3 16/25/3 20/31/3 18/28/3
f 18/28/4 20/31/4 24/37/4 22/34/4
f 6/10/5 8/13/5 12/19/5 10/16/5
f 7/12/6 3/5/6 23/36/6 19/30/6 15/24/6 11/18/6
f 2/3/7 4/7/7 8/13/7 6/10/7
f 2/4/8 6/11/8 5/9/8 1/1/8
f 8/14/9 4/8/9 3/5/9 7/12/9
f 6/11/10 10/17/10 9/15/10 5/9/10
f 12/20/11 8/14/11 7/12/11 11/18/11
f 10/17/12 14/23/12 13/21/12 9/15/12
f 16/26/13 12/20/13 11/18/13 15/24/13
f 14/23/14 18/29/14 17/27/14 13/21/14
f 20/32/15 16/26/15 15/24/15 19/30/15
f 18/29/16 22/35/16 21/33/16 17/27/16
f 24/38/17 20/32/17 19/30/17 23/36/17
f 22/35/18 2/4/18 1/1/18 21/33/18
f 4/8/19 24/38/19 23/36/19 3/5/19
f 1/1/20 5/9/20 9/15/20 13/21/20 17/27/20 21/33/20
